<mxfile host="app.diagrams.net" agent="Mozilla/5.0 (Macintosh; Intel Mac OS X 10_15_7) AppleWebKit/537.36 (KHTML, like Gecko) Chrome/140.0.0.0 Safari/537.36" version="28.2.3">
  <diagram name="Page-1" id="TMe8iA8JiqAigSr3SMO0">
    <mxGraphModel dx="1899" dy="1979" grid="1" gridSize="10" guides="1" tooltips="1" connect="1" arrows="1" fold="1" page="1" pageScale="1" pageWidth="850" pageHeight="1100" math="0" shadow="0">
      <root>
        <mxCell id="0" />
        <mxCell id="1" parent="0" />
        <mxCell id="Btdv_-nWSZbmAAVu3Kh_-1" value="Start" style="ellipse;whiteSpace=wrap;html=1;aspect=fixed;strokeWidth=2;fontSize=15;" vertex="1" parent="1">
          <mxGeometry x="-750" y="-1090" width="60" height="60" as="geometry" />
        </mxCell>
        <mxCell id="Btdv_-nWSZbmAAVu3Kh_-4" value="User clicks sign up button" style="rounded=1;whiteSpace=wrap;html=1;strokeWidth=2;" vertex="1" parent="1">
          <mxGeometry x="-780" y="-990" width="120" height="60" as="geometry" />
        </mxCell>
        <mxCell id="Btdv_-nWSZbmAAVu3Kh_-6" value="User enters an email" style="rounded=1;whiteSpace=wrap;html=1;strokeWidth=2;" vertex="1" parent="1">
          <mxGeometry x="-780" y="-880" width="120" height="60" as="geometry" />
        </mxCell>
        <mxCell id="Btdv_-nWSZbmAAVu3Kh_-7" value="User enters a username" style="rounded=1;whiteSpace=wrap;html=1;strokeWidth=2;" vertex="1" parent="1">
          <mxGeometry x="-780" y="-770" width="120" height="60" as="geometry" />
        </mxCell>
        <mxCell id="Btdv_-nWSZbmAAVu3Kh_-8" value="User enters a password" style="rounded=1;whiteSpace=wrap;html=1;strokeWidth=2;" vertex="1" parent="1">
          <mxGeometry x="-780" y="-660" width="120" height="60" as="geometry" />
        </mxCell>
        <mxCell id="Btdv_-nWSZbmAAVu3Kh_-11" value="User enters their birthday" style="rounded=1;whiteSpace=wrap;html=1;strokeWidth=2;" vertex="1" parent="1">
          <mxGeometry x="-780" y="-540" width="120" height="60" as="geometry" />
        </mxCell>
        <mxCell id="Btdv_-nWSZbmAAVu3Kh_-12" value="User selects their university from a list" style="rounded=1;whiteSpace=wrap;html=1;strokeWidth=2;" vertex="1" parent="1">
          <mxGeometry x="-620" y="-410" width="120" height="60" as="geometry" />
        </mxCell>
        <mxCell id="Btdv_-nWSZbmAAVu3Kh_-21" value="User selects 3 interests from a list" style="rounded=1;whiteSpace=wrap;html=1;strokeWidth=2;" vertex="1" parent="1">
          <mxGeometry x="-620" y="-540" width="120" height="60" as="geometry" />
        </mxCell>
        <mxCell id="Btdv_-nWSZbmAAVu3Kh_-23" value="User clicks final sign up button" style="rounded=1;whiteSpace=wrap;html=1;strokeWidth=2;" vertex="1" parent="1">
          <mxGeometry x="-620" y="-660" width="120" height="60" as="geometry" />
        </mxCell>
        <mxCell id="Btdv_-nWSZbmAAVu3Kh_-24" value="End" style="ellipse;whiteSpace=wrap;html=1;aspect=fixed;strokeWidth=2;fontSize=15;" vertex="1" parent="1">
          <mxGeometry x="-590" y="-770" width="60" height="60" as="geometry" />
        </mxCell>
        <mxCell id="Btdv_-nWSZbmAAVu3Kh_-25" value="" style="endArrow=classic;html=1;rounded=0;exitX=0.5;exitY=1;exitDx=0;exitDy=0;entryX=0.5;entryY=0;entryDx=0;entryDy=0;" edge="1" parent="1" source="Btdv_-nWSZbmAAVu3Kh_-1" target="Btdv_-nWSZbmAAVu3Kh_-4">
          <mxGeometry width="50" height="50" relative="1" as="geometry">
            <mxPoint x="-670" y="-910" as="sourcePoint" />
            <mxPoint x="-720" y="-1000" as="targetPoint" />
          </mxGeometry>
        </mxCell>
        <mxCell id="Btdv_-nWSZbmAAVu3Kh_-26" value="" style="endArrow=classic;html=1;rounded=0;exitX=0.5;exitY=1;exitDx=0;exitDy=0;entryX=0.496;entryY=-0.065;entryDx=0;entryDy=0;entryPerimeter=0;" edge="1" parent="1" source="Btdv_-nWSZbmAAVu3Kh_-4" target="Btdv_-nWSZbmAAVu3Kh_-6">
          <mxGeometry width="50" height="50" relative="1" as="geometry">
            <mxPoint x="-700" y="-910" as="sourcePoint" />
            <mxPoint x="-720" y="-890" as="targetPoint" />
          </mxGeometry>
        </mxCell>
        <mxCell id="Btdv_-nWSZbmAAVu3Kh_-27" value="" style="endArrow=classic;html=1;rounded=0;exitX=0.5;exitY=1;exitDx=0;exitDy=0;entryX=0.5;entryY=0;entryDx=0;entryDy=0;" edge="1" parent="1" source="Btdv_-nWSZbmAAVu3Kh_-6" target="Btdv_-nWSZbmAAVu3Kh_-7">
          <mxGeometry width="50" height="50" relative="1" as="geometry">
            <mxPoint x="-670" y="-810" as="sourcePoint" />
            <mxPoint x="-720" y="-780" as="targetPoint" />
          </mxGeometry>
        </mxCell>
        <mxCell id="Btdv_-nWSZbmAAVu3Kh_-35" value="Is user over 18?" style="rhombus;whiteSpace=wrap;html=1;strokeWidth=2;" vertex="1" parent="1">
          <mxGeometry x="-772.5" y="-430" width="105" height="100" as="geometry" />
        </mxCell>
        <mxCell id="Btdv_-nWSZbmAAVu3Kh_-36" value="" style="endArrow=classic;html=1;rounded=0;exitX=0.5;exitY=1;exitDx=0;exitDy=0;entryX=0.5;entryY=0;entryDx=0;entryDy=0;" edge="1" parent="1" source="Btdv_-nWSZbmAAVu3Kh_-8" target="Btdv_-nWSZbmAAVu3Kh_-11">
          <mxGeometry width="50" height="50" relative="1" as="geometry">
            <mxPoint x="-630" y="-340" as="sourcePoint" />
            <mxPoint x="-580" y="-390" as="targetPoint" />
          </mxGeometry>
        </mxCell>
        <mxCell id="Btdv_-nWSZbmAAVu3Kh_-37" value="" style="endArrow=classic;html=1;rounded=0;exitX=0.5;exitY=1;exitDx=0;exitDy=0;entryX=0.5;entryY=0;entryDx=0;entryDy=0;" edge="1" parent="1" source="Btdv_-nWSZbmAAVu3Kh_-7" target="Btdv_-nWSZbmAAVu3Kh_-8">
          <mxGeometry width="50" height="50" relative="1" as="geometry">
            <mxPoint x="-600" y="-580" as="sourcePoint" />
            <mxPoint x="-620" y="-570" as="targetPoint" />
          </mxGeometry>
        </mxCell>
        <mxCell id="Btdv_-nWSZbmAAVu3Kh_-38" value="" style="endArrow=classic;html=1;rounded=0;exitX=0.5;exitY=1;exitDx=0;exitDy=0;entryX=0.5;entryY=0;entryDx=0;entryDy=0;" edge="1" parent="1" source="Btdv_-nWSZbmAAVu3Kh_-11" target="Btdv_-nWSZbmAAVu3Kh_-35">
          <mxGeometry width="50" height="50" relative="1" as="geometry">
            <mxPoint x="-580" y="-460" as="sourcePoint" />
            <mxPoint x="-580" y="-400" as="targetPoint" />
          </mxGeometry>
        </mxCell>
        <mxCell id="Btdv_-nWSZbmAAVu3Kh_-39" value="" style="endArrow=classic;html=1;rounded=0;exitX=0.5;exitY=1;exitDx=0;exitDy=0;" edge="1" parent="1" source="Btdv_-nWSZbmAAVu3Kh_-35">
          <mxGeometry width="50" height="50" relative="1" as="geometry">
            <mxPoint x="-630" y="-390" as="sourcePoint" />
            <mxPoint x="-720" y="-300" as="targetPoint" />
          </mxGeometry>
        </mxCell>
        <mxCell id="Btdv_-nWSZbmAAVu3Kh_-40" value="Cannot create account" style="rounded=1;whiteSpace=wrap;html=1;strokeWidth=2;" vertex="1" parent="1">
          <mxGeometry x="-780" y="-300" width="120" height="60" as="geometry" />
        </mxCell>
        <mxCell id="Btdv_-nWSZbmAAVu3Kh_-41" value="No" style="text;html=1;align=center;verticalAlign=middle;whiteSpace=wrap;rounded=0;" vertex="1" parent="1">
          <mxGeometry x="-770" y="-330" width="60" height="30" as="geometry" />
        </mxCell>
        <mxCell id="Btdv_-nWSZbmAAVu3Kh_-42" value="" style="endArrow=classic;html=1;rounded=0;exitX=1;exitY=0.5;exitDx=0;exitDy=0;" edge="1" parent="1" source="Btdv_-nWSZbmAAVu3Kh_-35">
          <mxGeometry width="50" height="50" relative="1" as="geometry">
            <mxPoint x="-570" y="-390" as="sourcePoint" />
            <mxPoint x="-620" y="-380" as="targetPoint" />
          </mxGeometry>
        </mxCell>
        <mxCell id="Btdv_-nWSZbmAAVu3Kh_-43" value="Yes" style="text;html=1;align=center;verticalAlign=middle;whiteSpace=wrap;rounded=0;" vertex="1" parent="1">
          <mxGeometry x="-680" y="-410" width="60" height="30" as="geometry" />
        </mxCell>
        <mxCell id="Btdv_-nWSZbmAAVu3Kh_-44" value="" style="endArrow=classic;html=1;rounded=0;exitX=0.5;exitY=0;exitDx=0;exitDy=0;entryX=0.5;entryY=1;entryDx=0;entryDy=0;" edge="1" parent="1" source="Btdv_-nWSZbmAAVu3Kh_-23" target="Btdv_-nWSZbmAAVu3Kh_-24">
          <mxGeometry width="50" height="50" relative="1" as="geometry">
            <mxPoint x="-520" y="-530" as="sourcePoint" />
            <mxPoint x="-470" y="-580" as="targetPoint" />
          </mxGeometry>
        </mxCell>
        <mxCell id="Btdv_-nWSZbmAAVu3Kh_-46" value="" style="endArrow=classic;html=1;rounded=0;exitX=0.5;exitY=0;exitDx=0;exitDy=0;entryX=0.5;entryY=1;entryDx=0;entryDy=0;" edge="1" parent="1" source="Btdv_-nWSZbmAAVu3Kh_-21" target="Btdv_-nWSZbmAAVu3Kh_-23">
          <mxGeometry width="50" height="50" relative="1" as="geometry">
            <mxPoint x="-520" y="-530" as="sourcePoint" />
            <mxPoint x="-470" y="-580" as="targetPoint" />
          </mxGeometry>
        </mxCell>
        <mxCell id="Btdv_-nWSZbmAAVu3Kh_-47" value="" style="endArrow=classic;html=1;rounded=0;exitX=0.5;exitY=0;exitDx=0;exitDy=0;entryX=0.5;entryY=1;entryDx=0;entryDy=0;" edge="1" parent="1" source="Btdv_-nWSZbmAAVu3Kh_-12" target="Btdv_-nWSZbmAAVu3Kh_-21">
          <mxGeometry width="50" height="50" relative="1" as="geometry">
            <mxPoint x="-520" y="-530" as="sourcePoint" />
            <mxPoint x="-470" y="-580" as="targetPoint" />
          </mxGeometry>
        </mxCell>
      </root>
    </mxGraphModel>
  </diagram>
</mxfile>
